<svg width="12" height="21" viewBox="0 0 12 21" fill="none" xmlns="http://www.w3.org/2000/svg">
<path d="M5.70302 16.4757C5.34816 16.4757 5.06934 16.1969 5.06934 15.842V4.43574C5.06934 4.08088 5.34816 3.80206 5.70302 3.80206C6.05788 3.80206 6.3367 4.08088 6.3367 4.43574V15.842C6.3367 16.1969 6.05788 16.4757 5.70302 16.4757Z" fill="white"/>
<path d="M5.70323 17.7431C5.62012 17.7441 5.53772 17.7277 5.46133 17.695C5.38494 17.6622 5.31624 17.6139 5.25966 17.553L0.823893 13.1172C0.570421 12.8637 0.570421 12.4709 0.823893 12.2174C1.07737 11.9639 1.47025 11.9639 1.72372 12.2174L5.71591 16.2096L9.70809 12.2174C9.96157 11.9639 10.3544 11.9639 10.6079 12.2174C10.8614 12.4709 10.8614 12.8637 10.6079 13.1172L6.17216 17.553C6.04542 17.6797 5.88066 17.7431 5.72858 17.7431H5.70323Z" fill="white"/>
</svg>
