<svg width="12" height="12" viewBox="0 0 12 12" fill="none" xmlns="http://www.w3.org/2000/svg">
<path d="M3.23874 2.33334C3.23861 2.58087 3.14016 2.81822 2.96504 2.99317C2.78992 3.16811 2.55247 3.26633 2.30494 3.2662C2.0574 3.26608 1.82005 3.16763 1.64511 2.99251C1.47016 2.81738 1.37195 2.57994 1.37207 2.3324C1.37219 2.08487 1.47065 1.84752 1.64577 1.67257C1.82089 1.49763 2.05834 1.39941 2.30587 1.39954C2.55341 1.39966 2.79075 1.49811 2.9657 1.67323C3.14065 1.84835 3.23886 2.0858 3.23874 2.33334ZM3.26674 3.95733H1.40007V9.8H3.26674V3.95733ZM6.21607 3.95733H4.35874V9.8H6.1974V6.734C6.1974 5.026 8.4234 4.86733 8.4234 6.734V9.8H10.2667V6.09933C10.2667 3.22 6.97207 3.32734 6.1974 4.74133L6.21607 3.95733Z" fill="#A1A1A1"/>
</svg>
