<svg width="14" height="14" viewBox="0 0 14 14" fill="none" xmlns="http://www.w3.org/2000/svg">
<path d="M2.33341 11.6666C2.01258 11.6666 1.73803 11.5525 1.50975 11.3242C1.28147 11.096 1.16714 10.8212 1.16675 10.5V3.49998C1.16675 3.17915 1.28108 2.90459 1.50975 2.67631C1.73841 2.44804 2.01297 2.3337 2.33341 2.33331H11.6667C11.9876 2.33331 12.2623 2.44765 12.491 2.67631C12.7197 2.90498 12.8338 3.17954 12.8334 3.49998V10.5C12.8334 10.8208 12.7193 11.0956 12.491 11.3242C12.2627 11.5529 11.988 11.667 11.6667 11.6666H2.33341ZM7.00008 7.58331L2.33341 4.66665V10.5H11.6667V4.66665L7.00008 7.58331ZM7.00008 6.41665L11.6667 3.49998H2.33341L7.00008 6.41665ZM2.33341 4.66665V3.49998V10.5V4.66665Z" fill="#A1A1A1"/>
</svg>
