<svg width="18" height="20" viewBox="0 0 18 20" fill="none" xmlns="http://www.w3.org/2000/svg">
<path fill-rule="evenodd" clip-rule="evenodd" d="M10.4524 0.015444C10.2716 -0.0165507 10.0854 0.00137331 9.91401 0.0672877C9.74259 0.133202 9.59238 0.244611 9.47955 0.389529C9.36673 0.534446 9.29555 0.707385 9.27368 0.889739C9.25181 1.07209 9.28008 1.25696 9.35544 1.42444C9.85369 2.53434 10.0028 3.76948 9.7829 4.96604C9.56303 6.16261 8.9846 7.26407 8.12434 8.12434C7.26407 8.9846 6.16261 9.56303 4.96604 9.7829C3.76948 10.0028 2.53434 9.85369 1.42444 9.35544C1.25696 9.28008 1.07209 9.25181 0.889739 9.27368C0.707385 9.29555 0.534446 9.36673 0.389529 9.47955C0.244611 9.59238 0.133202 9.74259 0.0672877 9.91401C0.00137331 10.0854 -0.0165507 10.2716 0.015444 10.4524C0.406851 12.67 1.61536 14.6603 3.40242 16.0305C5.18948 17.4006 7.42525 18.051 9.66842 17.8534C11.9116 17.6557 13.9992 16.6243 15.5191 14.9628C17.039 13.3013 17.8809 11.1303 17.8784 8.87844C17.8784 4.44444 14.6724 0.760444 10.4524 0.015444ZM11.7594 2.49644C13.2177 3.15586 14.406 4.2949 15.1265 5.7239C15.8471 7.15289 16.0564 8.7856 15.7195 10.3501C15.3827 11.9147 14.5201 13.3166 13.2753 14.3225C12.0306 15.3284 10.4788 15.8775 8.87844 15.8784C7.53097 15.8788 6.21204 15.4903 5.07997 14.7594C3.94791 14.0286 3.05083 12.9866 2.49644 11.7584C3.7622 11.9807 5.06287 11.8947 6.28837 11.5079C7.51387 11.121 8.62813 10.4446 9.53684 9.53584C10.4456 8.62713 11.122 7.51287 11.5089 6.28737C11.8957 5.06187 11.9817 3.7622 11.7594 2.49644Z" fill="white"/>
</svg>
