<!DOCTYPE svg PUBLIC "-//W3C//DTD SVG 1.1//EN" "http://www.w3.org/Graphics/SVG/1.1/DTD/svg11.dtd">
<!-- Uploaded to: SVG Repo, www.svgrepo.com, Transformed by: SVG Repo Mixer Tools -->
<svg fill="#ffffff" width="800px" height="800px" viewBox="0 0 24 24" xmlns="http://www.w3.org/2000/svg" stroke="#ffffff">
<g id="SVGRepo_bgCarrier" stroke-width="0"/>
<g id="SVGRepo_tracerCarrier" stroke-linecap="round" stroke-linejoin="round"/>
<g id="SVGRepo_iconCarrier">
<path d="M17.92,6.62a1,1,0,0,0-.54-.54A1,1,0,0,0,17,6H7A1,1,0,0,0,7,8h7.59l-8.3,8.29a1,1,0,0,0,0,1.42,1,1,0,0,0,1.42,0L16,9.41V17a1,1,0,0,0,2,0V7A1,1,0,0,0,17.92,6.62Z"/>
</g>
</svg>